<?xml version="1.0" standalone="no"?>
<!DOCTYPE svg PUBLIC "-//W3C//DTD SVG 20010904//EN"
 "http://www.w3.org/TR/2001/REC-SVG-20010904/DTD/svg10.dtd">
<svg version="1.0" xmlns="http://www.w3.org/2000/svg"
 width="2560.000000pt" height="1440.000000pt" viewBox="0 0 2560.000000 1440.000000"
 preserveAspectRatio="xMidYMid meet">

<g transform="translate(0.000000,1440.000000) scale(0.100000,-0.100000)"
fill="#000000" stroke="none">
<path d="M0 7200 l0 -7200 12800 0 12800 0 0 7200 0 7200 -12800 0 -12800 0 0
-7200z m22246 2449 c783 -77 1522 -466 2031 -1069 358 -423 590 -916 682
-1450 33 -191 43 -315 43 -530 0 -498 -101 -930 -321 -1370 -381 -765 -1074
-1341 -1894 -1576 -277 -79 -460 -105 -782 -111 -286 -6 -422 5 -660 51 -905
177 -1694 769 -2121 1591 -186 359 -294 721 -334 1124 -13 133 -13 449 0 582
105 1057 735 1975 1679 2449 320 160 706 274 1051 309 125 12 500 13 626 0z
m-13190 -1048 c194 -37 317 -162 326 -333 l3 -53 -137 -3 -138 -3 -6 40 c-13
83 -60 128 -141 138 -73 8 -134 -21 -164 -79 -19 -35 -24 -63 -27 -153 -6
-158 17 -223 91 -261 42 -22 128 -20 174 3 36 19 68 66 78 116 l5 27 135 0
c153 0 145 7 124 -92 -41 -192 -193 -293 -439 -292 -207 1 -348 73 -419 215
-43 86 -54 154 -49 298 4 108 9 135 32 193 66 160 212 245 427 247 42 1 98 -3
125 -8z m1524 -21 c128 -42 210 -133 210 -232 l0 -38 -135 0 c-134 0 -135 0
-141 24 -10 41 -49 68 -103 74 -62 6 -119 -13 -133 -44 -10 -20 -8 -28 12 -49
17 -18 53 -31 159 -56 164 -38 226 -60 280 -99 77 -56 106 -157 77 -270 -41
-158 -168 -231 -401 -232 -180 0 -297 33 -373 105 -37 36 -72 121 -72 177 l0
40 140 0 140 0 0 -27 c1 -59 44 -83 151 -83 76 0 102 9 119 40 14 26 -1 54
-37 68 -15 6 -92 27 -170 46 -259 64 -328 125 -328 291 0 121 44 191 152 242
123 57 320 68 453 23z m1049 0 c129 -43 216 -123 262 -240 28 -70 38 -263 19
-349 -37 -168 -160 -286 -334 -321 -82 -17 -248 -14 -321 5 -93 25 -145 54
-206 116 -83 83 -119 191 -119 348 1 247 121 405 346 455 97 22 267 15 353
-14z m3042 16 c180 -38 293 -158 307 -322 l5 -65 -139 3 -138 3 -8 39 c-20 94
-89 144 -184 133 -113 -12 -162 -109 -151 -294 9 -152 61 -215 176 -214 95 0
155 44 167 123 l7 38 135 0 135 0 -6 -61 c-16 -178 -150 -297 -358 -317 -280
-27 -465 70 -529 276 -62 201 -17 450 101 557 108 97 303 138 480 101z m1076
-2 c231 -47 353 -206 353 -459 -1 -311 -167 -474 -486 -476 -229 -2 -378 71
-453 223 -42 83 -54 153 -49 282 5 124 25 194 77 269 98 142 328 209 558 161z
m2008 1 c142 -30 230 -97 259 -196 28 -94 35 -89 -122 -89 l-138 0 -9 33 c-12
39 -62 67 -120 67 -80 0 -139 -54 -104 -96 13 -15 89 -39 237 -74 116 -27 168
-49 217 -91 51 -45 75 -100 75 -175 0 -134 -52 -218 -171 -274 -154 -72 -463
-51 -586 40 -50 37 -89 111 -99 188 l-7 52 141 0 140 0 6 -34 c11 -57 36 -71
135 -74 56 -2 95 2 111 10 32 17 38 58 12 81 -10 9 -88 34 -173 56 -186 46
-214 58 -269 108 -58 51 -80 102 -80 184 0 76 12 120 47 167 79 106 303 158
498 117z m-9727 -20 c168 -40 269 -141 303 -305 18 -85 7 -273 -20 -343 -43
-109 -128 -194 -225 -222 -98 -29 -170 -35 -398 -35 l-228 0 0 460 0 460 253
0 c187 0 268 -4 315 -15z m4352 -325 l0 -340 235 0 235 0 0 -120 0 -120 -380
0 -380 0 0 460 0 460 145 0 145 0 0 -340z m900 39 c0 -329 3 -349 58 -385 59
-39 164 -34 211 9 48 45 51 66 51 382 l0 295 150 0 150 0 0 -295 c0 -179 -4
-315 -11 -347 -41 -194 -188 -289 -449 -289 -180 0 -291 39 -373 132 -78 87
-81 100 -85 472 l-3 327 150 0 151 0 0 -301z m3780 191 l0 -110 -250 0 -250 0
0 -65 0 -65 215 0 215 0 0 -105 0 -105 -215 0 -215 0 0 -70 0 -70 255 0 255 0
0 -110 0 -110 -405 0 -405 0 0 460 0 460 400 0 400 0 0 -110z m-8253 -1036
c26 -7 26 -6 98 -289 31 -121 58 -227 62 -235 6 -17 17 21 94 318 l52 202 203
0 204 0 0 -460 0 -460 -150 0 -150 0 0 168 c0 92 5 227 10 301 6 74 9 135 7
137 -2 2 -31 -99 -65 -224 -34 -125 -71 -262 -83 -305 l-21 -78 -116 3 -116 3
-78 280 c-43 154 -82 294 -88 310 l-10 30 6 -30 c3 -16 8 -157 11 -312 l5
-283 -136 0 -136 0 0 460 0 459 63 4 c114 6 312 7 334 1z m-547 -114 l0 -110
-250 0 -250 0 0 -59 0 -58 38 -7 c20 -3 117 -6 215 -6 l178 0 -3 -102 -3 -103
-212 -3 -213 -2 0 -70 0 -70 255 0 255 0 0 -110 0 -110 -405 0 -405 0 0 460 0
460 400 0 400 0 0 -110z m2720 -5 l0 -115 -150 0 -150 0 0 -345 0 -345 -150 0
-150 0 0 345 0 345 -150 0 -150 0 0 115 0 115 450 0 450 0 0 -115z m440 -345
l0 -460 -145 0 -145 0 0 460 0 460 145 0 145 0 0 -460z m-2153 -1712 c35 -34
63 -67 63 -74 0 -13 -114 -124 -129 -124 -27 0 -17 25 30 75 l53 56 -53 53
c-46 46 -59 76 -33 76 3 0 35 -28 69 -62z"/>
<path d="M21828 8669 c-214 -17 -428 -77 -575 -161 -209 -119 -360 -338 -439
-637 -22 -82 -27 -128 -34 -321 -7 -193 -12 -238 -33 -315 -38 -134 -71 -222
-157 -410 -129 -282 -170 -441 -170 -652 0 -126 18 -229 54 -319 13 -32 23
-60 22 -61 -1 -1 -20 4 -41 12 -118 42 -249 -8 -308 -119 -18 -34 -22 -57 -22
-136 0 -81 5 -108 32 -184 18 -49 30 -93 27 -97 -2 -4 -28 -10 -57 -14 -191
-26 -277 -127 -277 -326 0 -132 55 -202 168 -214 207 -21 428 -67 722 -151
121 -34 147 -38 250 -39 106 0 119 2 167 27 29 16 67 41 86 57 l33 30 79 -29
c170 -60 459 -89 712 -71 215 15 346 36 456 73 l88 29 40 -36 c71 -64 118 -79
244 -78 96 0 126 5 240 38 297 85 539 137 705 151 97 8 133 28 170 94 47 86
26 269 -41 355 -30 37 -104 71 -193 88 -42 8 -79 17 -81 19 -2 2 12 48 30 103
72 207 35 353 -106 425 -43 23 -136 27 -188 9 -18 -6 -34 -10 -36 -7 -2 2 9
42 25 89 39 117 53 253 40 386 -19 184 -65 329 -193 608 -126 276 -159 406
-162 650 -2 139 -8 204 -25 285 -51 245 -180 484 -329 606 -218 179 -567 272
-923 243z m-182 -745 c47 -23 99 -86 126 -153 27 -71 28 -196 1 -291 l-18 -65
-50 -7 c-28 -4 -99 -14 -159 -23 -59 -8 -112 -13 -116 -10 -5 3 -16 36 -24 75
-20 88 -21 248 -1 325 34 132 140 197 241 149z m752 -10 c76 -55 118 -243 89
-404 -19 -109 -33 -144 -52 -136 -9 3 -80 13 -160 23 l-145 18 -16 45 c-9 25
-18 91 -21 150 -4 90 -2 113 16 160 23 62 70 123 115 152 40 25 134 21 174 -8z
m-243 -634 c219 -18 395 -57 447 -100 22 -18 23 -18 4 -39 -10 -11 -40 -33
-65 -47 -79 -46 -181 -132 -323 -274 -101 -101 -145 -139 -169 -144 -49 -10
-205 -7 -234 4 -14 5 -88 72 -163 148 -120 121 -179 170 -346 289 -22 15 -41
33 -43 40 -10 28 150 82 307 104 71 10 231 20 425 27 22 1 94 -3 160 -8z
m-540 -596 c136 -139 161 -149 344 -141 170 7 176 10 318 156 67 69 124 124
126 121 3 -3 15 -41 26 -85 28 -102 84 -221 149 -317 118 -172 162 -340 108
-411 -35 -47 -52 -122 -71 -312 -22 -231 -40 -324 -80 -425 -49 -123 -58 -163
-58 -270 0 -76 6 -110 26 -170 14 -41 22 -78 18 -83 -14 -15 -147 -47 -261
-64 -159 -23 -515 -23 -660 0 -150 24 -253 56 -246 76 3 9 14 41 25 72 45 125
36 269 -25 417 -45 108 -58 177 -88 447 -25 222 -36 267 -77 319 -22 28 -22
32 -11 106 14 101 46 175 129 301 77 117 125 223 150 326 20 86 7 91 158 -63z
m1350 -744 c22 -9 46 -24 54 -33 7 -9 18 -56 23 -104 12 -110 36 -158 98 -190
59 -32 99 -26 232 34 128 56 176 60 219 16 57 -56 57 -126 -1 -289 -37 -106
-38 -143 -5 -183 28 -33 58 -44 155 -61 89 -16 123 -34 144 -76 21 -45 31
-141 18 -175 -10 -24 -17 -27 -79 -34 -184 -19 -434 -72 -702 -150 -143 -41
-246 -53 -309 -36 -92 25 -180 146 -203 280 -15 80 0 178 41 270 49 114 63
183 99 517 11 95 24 182 31 194 26 49 99 57 185 20z m-1882 -4 c30 -28 31 -32
57 -276 28 -256 45 -336 93 -454 38 -94 41 -108 42 -196 0 -108 -15 -161 -73
-248 -53 -81 -98 -106 -196 -110 -66 -3 -102 2 -196 28 -392 105 -647 160
-750 160 -56 0 -69 8 -80 49 -12 44 2 142 25 177 21 33 42 42 149 63 178 36
198 76 131 266 -52 148 -46 236 19 279 41 26 90 19 202 -29 57 -25 117 -48
134 -51 67 -14 143 23 175 86 8 16 19 67 24 115 6 48 17 97 25 110 17 26 94
54 152 54 30 1 48 -5 67 -23z"/>
<path d="M11359 8381 c-84 -27 -121 -90 -127 -215 -10 -200 49 -287 193 -287
72 0 110 15 149 61 39 46 48 93 44 216 -3 101 -5 114 -30 152 -16 23 -42 49
-60 58 -36 19 -131 27 -169 15z"/>
<path d="M15525 8376 c-48 -18 -88 -62 -104 -115 -17 -57 -14 -224 4 -269 34
-79 87 -113 180 -113 72 0 110 15 149 61 37 45 49 101 44 215 -4 115 -27 171
-85 206 -44 27 -135 34 -188 15z"/>
<path d="M7760 8130 l0 -243 83 5 c155 8 197 59 197 238 0 90 -3 112 -22 150
-36 69 -64 84 -169 88 l-89 4 0 -242z"/>
</g>
</svg>
